<?xml version="1.0" encoding="UTF-8"?>
<svg id="Layer_1" xmlns="http://www.w3.org/2000/svg" version="1.1" viewBox="0 0 1051.9 1051.9">
  <!-- Generator: Adobe Illustrator 30.6.0, SVG Export Plug-In . SVG Version: 2.1.4 Build 109)  -->
  <path d="M525.95,0C235.48,0,0,235.48,0,525.95s235.48,525.95,525.95,525.95,525.95-235.48,525.95-525.95S816.42,0,525.95,0ZM525.95,1029.87c-278.31,0-503.92-225.61-503.92-503.92S247.64,22.03,525.95,22.03s503.92,225.61,503.92,503.92-225.61,503.92-503.92,503.92Z"/>
  <path d="M221.5,525.95c0,168.14,136.31,304.45,304.45,304.45s304.45-136.31,304.45-304.45-136.31-304.45-304.45-304.45-304.45,136.31-304.45,304.45ZM525.95,245.72c154.77,0,280.23,125.46,280.23,280.23s-125.46,280.23-280.23,280.23-280.23-125.46-280.23-280.23,125.46-280.23,280.23-280.23Z"/>
  <path d="M111.69,559.55l9.71-16.05,65.87-2.86,2.02,7.1,11.32,3.95,3.22-23.42.95-6.86,3.22-23.42-11.97.74-3.71,6.14-77.11-26.49c-6.6-1.59-11.6-2.62-14.99-3.09,6.77.36,11.87.67,15.29.91l81.4-4.64,1.91,6.91,11.32,3.95,1.61-11.71,1.61-11.71.95-6.86,1.61-11.71,1.61-11.71-11.97.74-3.87,6.29-62.65-20.57-5.01-18.08-8.3,13.69v-.03s-54.79-18.12-54.79-18.12l-3.58-12.6-11.32-3.95-1.55,11.21-1.68,12.22-1.04,7.53-1.61,11.71-1.61,11.71,11.97-.74,4.05-6.6,81.54,25.05c6.6,1.59,11.6,2.62,14.99,3.09-2.17-.07-4.16-.17-5.96-.31-3.88-.2-7-.34-9.35-.44l-100.57,4.21-3.48,25.27,95.66,31.43c6.59,1.71,11.58,2.79,14.97,3.26-6.76-.47-11.85-.78-15.29-.91l-85.54,2.02-1.91-6.91-11.32-3.95-1.52,11.05-1.71,12.38-1.02,7.36-3.22,23.42,11.97-.74,7.22-11.79,57.37-2.5,4.29,15.43Z"/>
  <polygon points="123.64 279.07 169.29 313.25 164.91 331.28 181.08 322.08 232.03 360.23 229.61 370.23 237.6 379.17 244.69 369.7 251.78 360.23 251.75 360.22 296.6 300.32 286.54 292.79 278.97 287.12 271.4 281.45 264.11 294.35 267.13 302.94 245.77 331.47 203.79 300.05 220.19 278.14 229.29 278.62 239.61 267.99 232.04 262.32 224.47 256.65 222.31 255.03 214.74 249.36 207.17 243.69 199.88 256.59 202.9 265.18 186.5 287.09 147.34 257.77 168.2 229.91 177.3 230.39 187.62 219.76 172.48 208.42 162.31 200.81 117.97 260.04 110.88 269.51 103.79 278.98 114.62 284.13 123.64 279.07"/>
  <path d="M253.16,184.12c2.73,4.56,6.93,7.19,12.6,7.89l17.87,1.9-9.21,9.61,27.15-7.6,42.32,4.58,16.8,28.06-32.9,19.7-9.23-15.42,6.03-8.34-4.01-11.3-10.14,6.08-10.14,6.07-16.52,9.89,21.39,35.71c4.49,7.5,11.47,8.41,20.94,2.74l57.82-34.63h0c9.47-5.67,11.96-12.25,7.47-19.75l-21.45-35.83c-2.92-4.87-7.19-7.62-12.81-8.24l-24.52-2.48,9.07-9.52-27.01,7.51-35.53-3.77-15.48-25.85,32.9-19.7,7.98,13.33-6.03,8.34,4.01,11.3,10.14-6.08,10.14-6.07,16.52-9.89-20.2-33.74c-4.45-7.42-11.43-8.33-20.94-2.74l-57.83,34.63c-9.42,5.75-11.89,12.37-7.4,19.87l20.2,33.74Z"/>
  <polygon points="397.17 76.49 398.61 85.84 412.85 81.73 416.7 73.49 416.69 73.49 416.7 73.48 416.7 73.49 431.21 71.25 438.91 121.2 423.01 131.17 441.17 135.89 450.85 198.66 442.12 204.11 441.57 216.09 453.26 214.29 464.95 212.49 472.3 211.36 495.68 207.76 491.55 196.5 481.58 193.93 471.9 131.16 487.63 121.21 469.64 116.46 461.94 66.51 476.3 64.3 482.63 70.98 497.44 70.61 494.56 51.91 492.62 39.36 393.79 54.59 395.73 67.14 397.17 76.49"/>
  <polygon points="416.69 73.49 416.7 73.49 416.7 73.48 416.69 73.49"/>
  <path d="M573.47,208.77l67.32,17.66h-.01c10.67,2.81,17.13-.06,19.37-8.6l10.94-41.7-18.63-4.89-22.88-6-.69,11.97,8.12,6.32-4.87,18.56-39.05-10.24,14.78-56.34,18.03-2.82-14.36-11.17,13.06-49.8,39.05,10.24-4.42,16.86-10.18,1.52-5.27,10.77,22.88,6,18.63,4.89,10.49-40c2.24-8.54-1.98-14.21-12.65-17.01l-67.32-17.66c-10.56-2.77-17.02.1-19.37,8.61l-15.09,57.52-18.35,2.73,14.62,11.52-16.8,64.05c-2.14,8.57,2.08,14.24,12.65,17.01Z"/>
  <path d="M703.27,256.98l54.14,47.66h0c8.2,7.22,15.23,7.59,21.09,1.1l43.76-49.7,17.72,5.7-7.89-16.85,39.29-44.63c5.69-6.63,4.47-13.59-3.67-20.88l-54.14-47.66c-8.26-7.15-15.32-7.49-21.18-1l-39.29,44.63-17.72-5.7,7.89,16.85-43.76,49.7c-5.7,6.64-4.44,13.56,3.76,20.78ZM810.38,157.55l32.08,28.24-81.98,93.11-32.08-28.24,81.98-93.11Z"/>
  <path d="M871.98,386.84l-29.98,13.08-15.34-35.14,16.47-7.19,7.5,7.05,11.72-2.54-4.73-10.84-4.73-10.84-7.7-17.65-38.15,16.65c-8.01,3.5-9.81,10.3-5.39,20.42l26.96,61.78h.01c4.42,10.1,10.63,13.41,18.64,9.92l38.27-16.7c5.2-2.27,8.47-6.15,9.81-11.65l5.6-24.01,8.29,10.21-4-27.74,8.28-34.76,27.62-12.05,15.34,35.15-14.24,6.21-7.5-7.05-11.72,2.54,4.73,10.84,4.73,10.84,7.7,17.65,36.04-15.73c7.92-3.46,9.72-10.27,5.39-20.42l-26.96-61.78c-4.5-10.08-10.75-13.37-18.76-9.88l-36.04,15.73c-4.88,2.13-8.02,5.96-9.44,11.49l-4.17,17.48-8.36-10.36,4.06,27.9-9.95,41.39Z"/>
  <polygon points="1011.15 484.38 1010.65 460.74 998.94 463.35 994.95 472.89 937.93 474.08 930.28 457.17 923.2 474.38 859.56 475.7 855.31 466.33 843.51 464.21 844.01 487.85 844.02 487.89 845.57 562.71 858.14 562.45 877.06 562.05 874.86 547.4 867.19 542.49 866.45 506.85 918.87 505.76 919.44 533.12 911.98 538.34 910.39 553.07 929.31 552.67 932.01 552.61 950.93 552.21 948.73 537.56 941.06 532.65 940.49 505.29 989.4 504.27 990.12 539.06 982.66 544.28 981.07 559.01 999.99 558.61 1012.69 558.35 1011.15 484.38"/>
  <path d="M964.09,619.58l-98.88-15.48h0c-15.55-2.42-30.82,6.58-35.73,21.53-41.87,127.59-161.93,219.72-303.52,219.72s-261.56-92.07-303.48-219.59c-4.91-14.95-20.18-23.95-35.73-21.51l-98.88,15.48c-19.33,3.03-31.65,22.34-26.2,41.13,58.4,201.31,244.15,348.47,464.29,348.47s405.99-147.24,464.33-348.63c5.44-18.79-6.87-38.1-26.2-41.12ZM126.86,745.76h-.01c-5.76-2.94-10.51-8.38-14.25-16.32l-15.65-33.26-7.14-15.16,8.26-2.03,5.46,4.84,40.82-19.21-.38-13.19,9.83,8.74,36.58-17.21-.17-7.33,6.83-5.07,7.14,15.16,15.65,33.26c3.74,7.94,4.88,15.08,3.41,21.42-1.43,6.41-5.3,11.1-11.59,14.06l-66.65,31.37c-6.24,2.94-12.29,2.91-18.14-.07ZM252.37,817.67l-1.39,1.31-9.76,9.2-6.16-8.5,1.44-6.29-13.3-14.12-27.06,25.48,17.32,18.4,6.37-1.06,8.12,6.67-9.76,9.2-6.49,6.11-36.36-38.63-.05-.05-11.5-12.2,7.22-4.49,6.69,2.91,32.85-30.93-4.45-12.42,12.06,5.26,29.44-27.71-2.43-6.92,4.92-6.93,11.5,12.2,35.95,38.19-6.56,6.17-9.76,9.2-6.16-8.5,1.44-6.29-16.91-17.96-25.25,23.77,13.3,14.12,6.37-1.06,8.12,6.67-9.76,9.2ZM376.85,845.57l-13.89,24.17-11.84-6.8-7.27-4.18-7.27-4.18,5.61-6.39,7.25.85,5.49-9.55-23.57-13.54-10.64,18.52,9.96,23.29,13.99,14.11-9.03-2.31,6.95,16.03c1.56,3.7,1.34,7.29-.67,10.78l-14.74,25.67c-3.09,5.37-8.02,6.11-14.81,2.21h0s-41.43-23.8-41.43-23.8c-6.78-3.9-8.63-8.53-5.55-13.9l14.7-25.58,11.84,6.8,7.27,4.18,7.27,4.18-5.6,6.39-7.25-.85-6.35,11.05,23.57,13.54,11.55-20.1-11.8-27.77-14.09-14.17,9.13,2.37-5.01-11.72c-1.53-3.75-1.35-7.26.52-10.53l13.89-24.17c3.08-5.37,8.04-6.14,14.85-2.3l41.43,23.8c6.75,3.95,8.6,8.59,5.55,13.9ZM444.14,866.92l-7.25,1.1-10.62,39.01,10.31,8.17-13.05,1.91-11.85,43.53,5.72,4.53-.57,8.48-8.09-2.2-8.09-2.2h-.01s-5.08-1.38-5.08-1.38l-8.09-2.2-8.09-2.2,3.69-7.63,7.34-.98,12.06-44.27-8.75-7.05,11.09-1.55,10.82-39.74-5.81-4.66.69-8.45,8.09,2.2,8.09,2.2,5.08,1.38,8.09,2.2,8.09,2.2-3.81,7.6ZM555.3,986.12v-.03l-49.81.81c-7.74.13-11.71-2.94-11.89-9.2l-.76-46.93-12.18-5.07,12.01-5.37-.68-42.14c-.02-6.26,3.96-9.45,11.94-9.58l49.45-.8c7.74-.13,11.66,2.94,11.77,9.2l.43,26.72-13.77.22-16.76.28,1.54-8.36,6.66-3.08-.16-9.67-28.85.47,1.43,88.02,28.85-.47-.54-33.33-5.87.1-3.62,5.42-10.39,1.51-.11-6.71-.11-6.7-.14-8.33,42.14-.68.88,54.12c.1,6.26-3.72,9.45-11.46,9.58ZM717.13,946.26l-7.62,2.86h-.03s-4.26,1.59-4.26,1.59l-6.05,2.27-9.64,3.61-1.36-8.39,3.02-2.87-51.63-49.7c2.18,3.07,3.62,5.57,4.34,7.48l19.27,51.4,7.29.34,4.5,7.21-15.7,5.88-4.26,1.6-8.07,3.03-7.62,2.86-1.36-8.39,5.08-4.87-15.87-42.34-13.17-.69,9.51-9.09-14.19-37.85-7.32-.43-4.5-7.22,15.7-5.88,4.26-1.6,6.05-2.27,9.64-3.61,1.36,8.39-2.98,2.96,50.8,48.17c-2.1-3.1-3.51-5.61-4.23-7.52l-18.7-49.87-7.18-.38-4.49-7.22,7.74-2.9,7.96-2.98,4.26-1.6,15.7-5.88,1.36,8.39-5.24,5.13,14.19,37.85,13.14.6-9.48,9.18,15.8,42.16,7.55.34,4.5,7.22-8.07,3.03ZM870.95,832.08l-34.68,35.09c-5.44,5.51-10.42,6.09-14.93,1.75l-33.39-32.99-12.25,4.9,4.82-12.24-29.98-29.63c-4.4-4.45-3.87-9.44,1.57-14.95l34.68-35.09c5.5-5.56,10.47-6.15,14.93-1.75l20.85,20.6-9.6,9.71-11.78,11.92-4.75-7.05,2.67-6.79-8.79-8.69-20.12,20.36,25.96,25.65,11.94-4.86-4.65,12.07,29.37,29.02,20.12-20.36-9.68-9.56-6.76,2.75-7.11-4.66,11.78-11.92,9.6-9.71,21.74,21.48c4.45,4.4,3.93,9.38-1.57,14.94h.01ZM952.74,699.91l-21.31,46.48c-3.23,7.04-7.67,9.3-13.34,6.79l-42.67-19.57-9.83,8.8.25-13.19-38.31-17.57c-5.6-2.65-6.81-7.51-3.64-14.58l21.31-46.48c3.29-7.01,7.76-9.26,13.42-6.75l38.31,17.57,9.83-8.8-.25,13.19,42.67,19.57c5.6,2.66,6.78,7.5,3.55,14.54h.01Z"/>
  <rect x="873.2" y="654.54" width="30.3" height="87.94" transform="translate(-116.9129 1214.7762) rotate(-65.3614)"/>
  <path d="M196.25,664.67l-79.74,37.53,6.78,14.41c3.81,8.09,8.77,10.69,14.9,7.81l61.63-29h0c5.95-2.81,7.09-8.11,3.42-15.91l-6.99-14.84Z"/>
  <path d="M320.93,613.35l-23.14,13.36c28.39,16.39,17.9,10.34,46.31,26.74,60.12-34.72,5.03-2.9,69.45-40.1v53.48l-23.14,13.36c56.86,32.83,96.19,55.54,138.93,80.22,46.09-26.61,101.85-58.81,138.93-80.22-31.64-18.27-38.85-22.43-69.46-40.11v26.73c-39.63,22.88-8.76,5.06-69.47,40.11-38.17-22.04-12.76-7.37-69.47-40.11v-80.21c28.4-16.4,17.93-10.35,46.32-26.74v80.22l23.16,13.37,23.16-13.37v-80.22c7.68,4.44,141.99,81.99,162.09,93.59,28.41-16.4,17.94-10.36,46.31-26.74l-23.14-13.36v-187.2l23.14-13.36c-28.38-16.39-17.91-10.34-46.31-26.74l-23.14,13.36v187.2c-28.72-16.59-112.49-64.95-138.94-80.23v-106.96l-23.16-13.37-23.16,13.37v106.96c-16.2,9.35-30.12,17.39-46.32,26.74v-160.44c67.03-38.7,8.34-4.81,69.47-40.11,61.25,35.37,3.03,1.75,69.47,40.11v106.96c28.4,16.4,17.92,10.35,46.31,26.74v-133.71l23.15-13.36c-43.14-24.91-96.78-55.88-138.93-80.22-22.73,13.12-122.24,70.59-138.93,80.22l23.14,13.36v187.19c-28.44,16.42-17.9,10.33-46.31,26.74v-187.2l-23.14-13.36c-28.4,16.4-17.94,10.36-46.31,26.74h0s23.14,13.37,23.14,13.37v187.2ZM526.44,523.04c1.61,0,2.91,1.3,2.91,2.91s-1.3,2.91-2.91,2.91-2.91-1.3-2.91-2.91,1.3-2.91,2.91-2.91Z"/>
  <circle cx="526.44" cy="525.95" r="2.91"/>
</svg>