{
  "accessors": [
    {
      "bufferView": 0,
      "componentType": 5125,
      "count": 11778,
      "type": "SCALAR"
    },
    {
      "bufferView": 1,
      "componentType": 5126,
      "count": 3567,
      "max": [
        0.19999999657244164,
        0.20786544535130136,
        0.02945137340913449
      ],
      "min": [
        -0.1999999965724416,
        -0.20786544535130136,
        -0.029451373409134493
      ],
      "type": "VEC3"
    },
    {
      "bufferView": 2,
      "componentType": 5126,
      "count": 3567,
      "max": [
        1.0,
        0.8660420383211198,
        1.0
      ],
      "min": [
        -1.0,
        -0.8661079253137017,
        -1.0
      ],
      "type": "VEC3"
    },
    {
      "bufferView": 3,
      "componentType": 5126,
      "count": 3567,
      "max": [
        1.0,
        0.9433349188057856
      ],
      "min": [
        0.0,
        0.0
      ],
      "type": "VEC2"
    }
  ],
  "asset": {
    "generator": "Adobe Illustrator",
    "version": "2.0"
  },
  "bufferViews": [
    {
      "buffer": 0,
      "byteLength": 47112,
      "target": 34963
    },
    {
      "buffer": 0,
      "byteLength": 42804,
      "byteOffset": 47112,
      "target": 34962
    },
    {
      "buffer": 0,
      "byteLength": 42804,
      "byteOffset": 89916,
      "target": 34962
    },
    {
      "buffer": 0,
      "byteLength": 28536,
      "byteOffset": 132720,
      "target": 34962
    }
  ],
  "buffers": [
    {
      "byteLength": 161256,
      "uri": "data:application/octet-stream;base64,"
    }
  ],
  "materials": [
    {
      "doubleSided": true,
      "pbrMetallicRoughness": {
        "baseColorFactor": [
          0.9999999403953552,
          0.9999999403953552,
          0.9999999403953552,
          1.0
        ],
        "metallicFactor": 0.0,
        "roughnessFactor": 0.4000000059604645
      }
    }
  ],
  "meshes": [
    {
      "primitives": [
        {
          "attributes": {
            "NORMAL": 2,
            "POSITION": 1,
            "TEXCOORD_0": 3
          },
          "indices": 0,
          "material": 0,
          "mode": 4
        }
      ]
    }
  ],
  "nodes": [
    {
      "mesh": 0
    }
  ],
  "scenes": [
    {
      "nodes": [
        0
      ]
    }
  ]
}
